<?xml version="1.0" encoding="utf-8"?>
<!-- Generator: Adobe Illustrator 22.0.1, SVG Export Plug-In . SVG Version: 6.00 Build 0)  -->
<svg version="1.0" id="Calque_1" xmlns="http://www.w3.org/2000/svg" xmlns:xlink="http://www.w3.org/1999/xlink" x="0px" y="0px"
	 viewBox="0 0 580.5 188" style="enable-background:new 0 0 580.5 188;" xml:space="preserve">
<style type="text/css">
	.st0{fill:transparent;}
</style>
<g id="myPathGroup">
	<path class="st0" d="M72.5,33.6L69.9,34C66.5,24,56.6,15.1,46.7,15.1c-6.1,0-14,3-13.6,10.9c0,6.9,8.3,9,12.9,10.5l14.5,4.8
		C71.7,45.1,81,54.3,81,65.9c0,22.9-15.6,33.4-41,33.4c-6.3,0-11.1-0.8-17.3-2.1c-2.4-0.6-5.8-1.4-8.2-1.4c-2.8,0-4.8,1.2-6.7,3.3
		L5.1,60.7l2.7-0.4c2.4,16,14.1,28,28.8,28c8.4,0,18.1-2.2,18.1-13.7c0-7.6-7.6-9.5-12.8-11.5l-12.5-4.6c-4.7-1.7-10.5-4-14.4-7.5
		c-4.5-4-7.3-10.4-7.3-16.7C7.8,9.6,28.2,4.1,39,4.1C51.6,4.1,59,7,61.6,7c2.5,0,5.9-1,7.7-3.3L72.5,33.6z"/>
	<path class="st0" d="M121.2,71.3c0,8.8,1.3,12.7,7.5,12.8v3H94.2v-3c6.2-0.1,7.5-4,7.5-12.8V15.9c-8.9,0.2-15.6,6.3-17.9,17.4
		l-2-0.5l4.7-27.8c0.6,1.3,2,1.8,3.4,1.9c1.5,0.1,3.1,0,4.1,0h34.1c2.1,0,7,0.6,8.5-1.9l4.4,27.8l-1.9,0.5
		c-3.2-10.8-8.5-16.7-17.9-17.4V71.3z"/>
	<path class="st0" d="M146.5,22.2c0-8.5-1.3-12.3-5.2-12.2V7H184c3.9,0.1,8.1,0.1,11.7,1.9c3.3,1.9,5.5,5.5,5.5,10.3
		c0,10.1-7.2,16.8-13.5,20.9c7,8.6,12.5,20.8,15.9,33.8c1,4.3,2.9,10,7.1,10v3h-31.9v-3c2.2-0.1,3.9-0.7,3.9-4
		c0-7.4-9.5-25-13.5-30.9l-3.3,1.5v21.3c0,8.5,1.3,12.3,5.2,12.2v3h-29.8v-3c3.9,0.1,5.2-3.7,5.2-12.2V22.2z M173.1,15.1
		c-1.9,0-4.9,0.5-6.4,2.3c-1,1.5-0.9,4.5-0.9,6.3v18c6.5-2.1,15.2-6.9,15.2-17.3C181.1,18.2,177.8,15.1,173.1,15.1z"/>
	<path class="st0" d="M227.9,68.9c-0.7,2.6-1.8,7.2-1.8,9.9c0,3.8,1.8,5,4.4,5.4v3h-20.9v-3c5.1-1.5,7.1-8.3,8.9-13.9l14.9-50.5
		c0.5-1.5,1.6-4.9,1.6-6.6c0-1.8-0.8-2.8-2.1-3V7h27.7v3c-1.4,0.2-2.2,1-2.2,3c0,1.6,8.3,32.4,14.8,57.2c1.4,5.1,2.9,13,7.9,13.8v3
		h-32.8v-3c3-0.2,5.2-2.9,5.2-7.1c0-6-4.3-12.1-8-15.2c-4.4-3.9-9-5.7-14.3-5.4L227.9,68.9z M240.3,23.2l-6,22.9
		c4.8-0.1,9.4,2.6,13.2,6L240.3,23.2z"/>
	<path class="st0" d="M339.2,71.8c0,8.5,1.3,12.3,5.2,12.2v3h-19.1v-2.9c3-0.6,4.8-2.8,4.8-6.9c0-5.8-2.8-9.9-5.6-14l-28.2-41.6
		v50.4c0,8.5,1.2,12.3,5.1,12.2v3h-18.4v-3c3.9,0.1,5.2-3.7,5.2-12.2V22.2c0-8.5-1.3-12.3-5.2-12.2V7h36.3v3
		c-1.3,0.5-2.5,1.3-2.5,3.3c0,2.6,2.6,6,3.8,7.8l10.5,16.4V22.2c0-8.5-1.9-12.3-5.8-12.2V7h19.1v3c-3.9-0.1-5.2,3.7-5.2,12.2V71.8z"
		/>
	<path class="st0" d="M412.9,70c0,2.7-0.1,8.4,0.9,10.7c0.8,1.9,2.4,2.7,3.9,3.4v3H387c-9.8,0-19.9-1.1-27.9-9
		c-8.2-8-13-21.4-13-34.4c0-26.3,16-38.6,35-38.6c7.1,0,10,0.6,14.8,1.8c1.4,0.4,2.9,0.7,4.3,0.7c2.1,0,4-1.2,5.2-3.4l2.9,28.5
		l-2,0.4c-3.4-10.8-11.3-18.9-20.6-18.9c-13.6,0-18.7,15.6-18.7,30.7c0,14.6,6,34.2,19.5,34.2c2.5,0,5.4-1.1,6.6-4
		c1.1-2.6,1-6.5,1-9.4V54.5c0-6,0.5-12.4-5.8-12.8v-3h30.5v3c-6.7,0.5-6,7.7-6,14.1V70z"/>
	<path class="st0" d="M474.2,89.1c-0.8-1.1-1.6-1.6-2.7-1.7c-1-0.2-2-0.2-3-0.2h-47.1v-3c3.9,0.1,5.2-3.7,5.2-12.2V22.2
		c0-8.5-1.3-12.3-5.2-12.2V7h43.1c2.4,0,6.2,0.5,8-1.9l4.8,28l-2.1,0.9c-2.8-11.8-10.9-18.9-20.4-18.9c-9.3,0-8.7,4.5-8.7,14.2v3.9
		h3c6.3,0,12.5,0.9,12.4-9.9l1.9-0.4l4.2,30.9l-1.9,0.2c-1-3.4-2.6-6.6-4.7-9c-3.7-4.4-7.7-3.9-12.4-3.9h-2.6v26.4
		c0,8.3,1.7,11.4,9.2,11.4c12.2,0,20-9.4,25-22.6l2,1L474.2,89.1z"/>
	<path class="st0" d="M491.5,23.6c0-9.7-1.7-13.9-6.8-13.8V6.3h55.7c5.1,0.1,10.5,0.1,15.2,2.2c4.3,2.2,7.2,6.2,7.2,11.7
		c0,11.5-9.4,19-17.6,23.7c9.2,9.8,16.3,23.6,20.7,38.4c1.4,4.8,3.8,11.3,9.3,11.3v3.5h-41.6v-3.5c2.8-0.1,5.1-0.8,5.1-4.6
		c0-8.4-12.4-28.3-17.6-35.1l-4.3,1.7v24.2c0,9.7,1.7,13.9,6.8,13.8v3.5h-38.9v-3.5c5.1,0.1,6.8-4.1,6.8-13.8V23.6z M526.2,15.4
		c-2.5,0-6.4,0.6-8.3,2.6c-1.4,1.7-1.1,5.1-1.1,7.2v20.4c8.4-2.3,19.8-7.9,19.8-19.6C536.6,19,532.4,15.4,526.2,15.4z"/>
</g>
<g id="myPathGroup">
	<path class="st0" d="M124.1,166.6c0,8.4,1.5,12.2,8.3,12.3v2.9H94.2v-2.9c6.8-0.1,8.3-3.9,8.3-12.3v-53.3
		c-9.9,0.2-17.2,6.1-19.8,16.8l-2.2-0.5l5.2-26.7c0.6,1.3,2.2,1.8,3.8,1.9c1.7,0.1,3.5,0,4.5,0h37.7c2.3,0,7.8,0.6,9.4-1.9l4.8,26.7
		l-2.1,0.5c-3.6-10.4-9.5-16.1-19.8-16.8V166.6z"/>
	<path class="st0" d="M174.3,166.6c0,8.7,1.5,12.2,6.2,12.3v2.9H147v-2.9c4.3,0.1,5.8-3.5,5.8-11.7v-47.8c0-8.2-1.5-11.8-5.8-11.7
		v-2.9h33.5v2.9c-4.3-0.1-6.2,3.5-6.2,11.7v6.3h20.9v-6.3c0-8.2-1.9-11.8-6.2-11.7v-2.9h33.5v2.9c-4.3-0.1-5.8,3.5-5.8,11.7v47.8
		c0,8.2,1.5,11.8,5.8,11.7v2.9H189v-2.9c4.7-0.1,6.2-3.6,6.2-12.3v-33.2h-20.9V166.6z"/>
	<path class="st0" d="M253.4,167.1c0,8.2,1.5,11.8,5.8,11.7v2.9H226v-2.9c4.3,0.1,5.8-3.5,5.8-11.7v-47.8c0-8.2-1.5-11.8-5.8-11.7
		v-2.9h33.1v2.9c-4.3-0.1-5.8,3.5-5.8,11.7V167.1z"/>
	<path class="st0" d="M323.3,167c0,8.2,1.5,11.8,5.8,11.7v2.9h-21.1v-2.8c3.4-0.6,5.4-2.7,5.4-6.7c0-5.6-3-9.5-6.2-13.5l-31.2-40.1
		v48.5c0,8.2,1.4,11.8,5.7,11.7v2.9h-20.4v-2.9c4.3,0.1,5.8-3.5,5.8-11.7v-47.8c0-8.2-1.5-11.8-5.8-11.7v-2.9h40.2v2.9
		c-1.5,0.5-2.7,1.3-2.7,3.2c0,2.5,2.8,5.7,4.2,7.5l11.6,15.8v-14.8c0-8.2-2.1-11.8-6.4-11.7v-2.9H329v2.9c-4.3-0.1-5.8,3.5-5.8,11.7
		V167z"/>
	<path class="st0" d="M404.7,165.3c0,2.6-0.1,8.1,0.9,10.3c0.8,1.9,2.6,2.6,4.3,3.3v2.9h-33.8c-10.8,0-22-1.1-30.9-8.7
		c-9-7.7-14.4-20.6-14.4-33.2c0-25.3,17.7-37.1,38.7-37.1c7.9,0,11,0.6,16.4,1.8c1.6,0.4,3.2,0.7,4.7,0.7c2.3,0,4.4-1.2,5.8-3.3
		l3.3,27.4l-2.2,0.4c-3.8-10.4-12.5-18.2-22.8-18.2c-15,0-20.7,15-20.7,29.5c0,14.1,6.6,32.9,21.5,32.9c2.7,0,6-1.1,7.4-3.9
		c1.3-2.5,1.2-6.2,1.2-9v-10.8c0-5.7,0.5-12-6.4-12.3v-2.9h33.7v2.9c-7.5,0.5-6.6,7.4-6.6,13.6V165.3z"/>
	<path class="st0" d="M473.5,127.9l-2.2,0.4c-2.9-8.6-11.4-16.1-19.8-16.1c-5.2,0-11.9,2.6-11.6,9.3c0,5.9,7,7.6,10.9,8.9l12.3,4.1
		c9.6,3.2,17.5,11,17.5,20.9c0,19.5-13.2,28.4-34.8,28.4c-5.4,0-9.5-0.7-14.7-1.8c-2-0.5-4.9-1.2-6.9-1.2c-2.4,0-4.1,1.1-5.7,2.8
		l-2.3-32.7l2.3-0.4c2,13.6,12,23.8,24.5,23.8c7.1,0,15.3-1.9,15.3-11.6c0-6.4-6.4-8.1-10.8-9.7l-10.6-3.9c-4-1.4-8.9-3.4-12.2-6.3
		c-3.8-3.4-6.2-8.8-6.2-14.2c0-21.1,17.3-25.8,26.5-25.8c10.7,0,17,2.5,19.2,2.5c2.1,0,5-0.8,6.5-2.8L473.5,127.9z"/>
</g>
</svg>
